<?xml version="1.0" encoding="UTF-8" standalone="no"?>
<!DOCTYPE svg PUBLIC "-//W3C//DTD SVG 1.1//EN" "http://www.w3.org/Graphics/SVG/1.1/DTD/svg11.dtd">
<svg width="100%" height="100%" viewBox="0 0 900 216" version="1.1" xmlns="http://www.w3.org/2000/svg" xmlns:xlink="http://www.w3.org/1999/xlink" xml:space="preserve" xmlns:serif="http://www.serif.com/" style="fill-rule:evenodd;clip-rule:evenodd;stroke-linejoin:round;stroke-miterlimit:2;">
    <g transform="matrix(1,0,0,0.717671,0,0)">
        <path d="M0,61L37.5,73C75,85 150,109 225,118C300,127 375,121 450,108C525,95 600,75 675,64C750,53 825,51 862.5,50L900,49L900,0L0,0L0,61Z" style="fill:rgb(180,200,217);fill-rule:nonzero;"/>
    </g>
    <g transform="matrix(1,0,0,0.408888,0,3.03007)">
        <path d="M0,217L37.5,234C75,251 150,285 225,295C300,305 375,291 450,286C525,281 600,285 675,287C750,289 825,289 862.5,289L900,289L900,47L862.5,48C825,49 750,51 675,62C600,73 525,93 450,106C375,119 300,125 225,116C150,107 75,83 37.5,71L0,59L0,217Z" style="fill:rgb(148,178,191);fill-rule:nonzero;"/>
    </g>
    <g transform="matrix(1,0,0,0.717671,0,-124.704)">
        <path d="M0,331L37.5,343C75,355 150,379 225,377C300,375 375,347 450,343C525,339 600,359 675,363C750,367 825,355 862.5,349L900,343L900,287L862.5,287C825,287 750,287 675,285C600,283 525,279 450,284C375,289 300,303 225,293C150,283 75,249 37.5,232L0,215L0,331Z" style="fill:rgb(120,156,162);fill-rule:nonzero;"/>
    </g>
    <g transform="matrix(1,0,0,0.717671,0,-132.541)">
        <path d="M0,361L37.5,382C75,403 150,445 225,447C300,449 375,411 450,407C525,403 600,433 675,440C750,447 825,431 862.5,423L900,415L900,341L862.5,347C825,353 750,365 675,361C600,357 525,337 450,341C375,345 300,373 225,375C150,377 75,353 37.5,341L0,329L0,361Z" style="fill:rgb(95,134,132);fill-rule:nonzero;"/>
    </g>
    <g transform="matrix(1,0,0,0.717671,0,-143.707)">
        <path d="M0,433L37.5,449C75,465 150,497 225,500C300,503 375,477 450,472C525,467 600,483 675,490C750,497 825,495 862.5,494L900,493L900,413L862.5,421C825,429 750,445 675,438C600,431 525,401 450,405C375,409 300,447 225,445C150,443 75,401 37.5,380L0,359L0,433Z" style="fill:rgb(76,111,101);fill-rule:nonzero;"/>
    </g>
</svg>
