<?xml version="1.0" encoding="UTF-8" standalone="no"?>
<!DOCTYPE svg PUBLIC "-//W3C//DTD SVG 1.1//EN" "http://www.w3.org/Graphics/SVG/1.1/DTD/svg11.dtd">
<svg width="100%" height="100%" viewBox="0 0 900 259" version="1.1" xmlns="http://www.w3.org/2000/svg" xmlns:xlink="http://www.w3.org/1999/xlink" xml:space="preserve" xmlns:serif="http://www.serif.com/" style="fill-rule:evenodd;clip-rule:evenodd;stroke-linejoin:round;stroke-miterlimit:2;">
    <path d="M0,259L21.5,252.8C43,246.7 86,234.3 128.8,225.7C171.7,217 214.3,212 257.2,217.7C300,223.3 343,239.7 385.8,243.7C428.7,247.7 471.3,239.3 514.2,235C557,230.7 600,230.3 642.8,231C685.7,231.7 728.3,233.3 771.2,235.7C814,238 857,241 878.5,242.5L900,244L900,0L0,0L0,259Z" style="fill:rgb(22,55,48);fill-rule:nonzero;"/>
    <path d="M0,195L21.5,189.3C43,183.7 86,172.3 128.8,163.5C171.7,154.7 214.3,148.3 257.2,149.5C300,150.7 343,159.3 385.8,165C428.7,170.7 471.3,173.3 514.2,170.3C557,167.3 600,158.7 642.8,153.2C685.7,147.7 728.3,145.3 771.2,152.3C814,159.3 857,175.7 878.5,183.8L900,192L900,0L0,0L0,195Z" style="fill:rgb(93,102,79);fill-rule:nonzero;"/>
    <path d="M0,124L21.5,121.3C43,118.7 86,113.3 128.8,114.8C171.7,116.3 214.3,124.7 257.2,129.8C300,135 343,137 385.8,130C428.7,123 471.3,107 514.2,100.7C557,94.3 600,97.7 642.8,97.5C685.7,97.3 728.3,93.7 771.2,99C814,104.3 857,118.7 878.5,125.8L900,133L900,0L0,0L0,124Z" style="fill:rgb(172,150,127);fill-rule:nonzero;"/>
    <path d="M0,63L21.5,62C43,61 86,59 128.8,62.5C171.7,66 214.3,75 257.2,76.8C300,78.7 343,73.3 385.8,69.3C428.7,65.3 471.3,62.7 514.2,63.3C557,64 600,68 642.8,65.7C685.7,63.3 728.3,54.7 771.2,54C814,53.3 857,60.7 878.5,64.3L900,68L900,0L0,0L0,63Z" style="fill:rgb(247,202,202);fill-rule:nonzero;"/>
</svg>
